static_grf.mot
version=1
nRows=25
nColumns 19
inDegrees=yes
endheader
time	1_ground_force_vx	1_ground_force_vy	1_ground_force_vz	1_ground_force_px	1_ground_force_py	1_ground_force_pz	1_ground_torque_x	1_ground_torque_y	1_ground_torque_z	2_ground_force_vx	2_ground_force_vy	2_ground_force_vz	2_ground_force_px	2_ground_force_py	2_ground_force_pz	2_ground_torque_x	2_ground_torque_y	2_ground_torque_z
            0.005000	           -1.675392	          392.313907	          -53.433973	           -0.298565	            0.006090	           -0.377064	           -0.012619	            2.954973	           -0.402474	           -1.976886	          515.235780	           56.463480	           -0.292265	            0.005467	           -0.708522	            0.011671	           -3.041826	           -0.333347
            0.005500	           -1.583640	          391.953393	          -53.435746	           -0.298709	            0.006088	           -0.376743	           -0.011944	            2.956104	           -0.403011	           -2.025791	          515.788596	           56.324687	           -0.292315	            0.005467	           -0.708583	            0.011902	           -3.030259	           -0.330908
            0.006000	           -1.308777	          391.773544	          -53.528914	           -0.298708	            0.006089	           -0.376901	           -0.010315	            3.087875	           -0.421903	           -2.070627	          515.235777	           56.369664	           -0.292348	            0.005468	           -0.708703	            0.012059	           -3.000678	           -0.328291
            0.006500	           -1.675215	          393.214615	          -53.292544	           -0.298402	            0.006087	           -0.376340	           -0.012793	            3.002905	           -0.406985	           -1.884015	          515.421659	           56.088672	           -0.292083	            0.005468	           -0.708532	            0.010801	           -2.955023	           -0.321568
            0.007000	           -1.674628	          392.492766	          -53.112212	           -0.298660	            0.006088	           -0.376543	           -0.012899	            3.023293	           -0.409113	           -2.072580	          515.787925	           56.465491	           -0.292030	            0.005468	           -0.708619	            0.012010	           -2.988928	           -0.327211
            0.007500	           -1.628785	          392.492775	          -53.112326	           -0.298669	            0.006088	           -0.376637	           -0.012379	            2.983007	           -0.403662	           -2.071895	          515.603678	           56.511762	           -0.292261	            0.005468	           -0.708683	            0.012187	           -3.032710	           -0.332394
            0.008000	           -1.721154	          392.493937	          -53.387234	           -0.298687	            0.006087	           -0.376477	           -0.012914	            2.944835	           -0.400558	           -1.794118	          516.525335	           56.514928	           -0.291897	            0.005470	           -0.709018	            0.010587	           -3.047907	           -0.333483
            0.008500	           -1.767338	          392.494518	          -53.524684	           -0.298544	            0.006087	           -0.376445	           -0.013282	            2.949647	           -0.402245	           -1.839618	          516.156717	           56.560562	           -0.292052	            0.005469	           -0.708856	            0.010781	           -3.025038	           -0.331484
            0.009000	           -1.629111	          393.033996	          -53.201719	           -0.298604	            0.006087	           -0.376479	           -0.012069	            2.911672	           -0.394129	           -1.979586	          515.972800	           56.372252	           -0.292013	            0.005470	           -0.708919	            0.011415	           -2.975238	           -0.325058
            0.009500	           -1.766751	          391.772669	          -53.344352	           -0.298892	            0.006090	           -0.377176	           -0.013496	            2.992600	           -0.407477	           -1.975639	          514.868168	           56.274453	           -0.292360	            0.005467	           -0.708652	            0.011431	           -2.979013	           -0.325602
            0.010000	           -1.720471	          392.492757	          -53.112099	           -0.298482	            0.006088	           -0.376639	           -0.013144	            2.998563	           -0.405765	           -2.118703	          515.603174	           56.605638	           -0.292262	            0.005468	           -0.708719	            0.012422	           -3.023095	           -0.331891
            0.010500	           -1.721022	          391.772874	          -53.390326	           -0.298516	            0.006089	           -0.376845	           -0.012973	            2.953262	           -0.402467	           -2.023154	          515.052201	           56.275131	           -0.292181	            0.005467	           -0.708477	            0.011900	           -3.029585	           -0.331016
            0.011000	           -1.491792	          392.313549	          -53.342716	           -0.298729	            0.006089	           -0.376763	           -0.011335	            2.980837	           -0.405303	           -2.071271	          515.419811	           56.417249	           -0.292141	            0.005468	           -0.708712	            0.012101	           -3.011119	           -0.329594
            0.011500	           -1.629696	          392.494348	          -53.479173	           -0.298335	            0.006088	           -0.376725	           -0.012293	            2.960658	           -0.403403	           -2.118162	          515.419977	           56.323413	           -0.292187	            0.005468	           -0.708675	            0.012221	           -2.973759	           -0.324963
            0.012000	           -1.629450	          391.773088	          -53.436406	           -0.298648	            0.006090	           -0.377040	           -0.012294	            2.955958	           -0.403182	           -1.886509	          516.156883	           56.466725	           -0.292092	            0.005469	           -0.708783	            0.011022	           -3.015737	           -0.329917
            0.012500	           -1.766395	          392.312710	          -53.158610	           -0.298757	            0.006088	           -0.376605	           -0.013474	            2.992635	           -0.405504	           -2.073950	          516.156541	           56.372949	           -0.291951	            0.005469	           -0.708817	            0.012046	           -2.997935	           -0.327425
            0.013000	           -1.720764	          392.853682	          -53.202264	           -0.298452	            0.006087	           -0.376393	           -0.012750	            2.910811	           -0.394197	           -2.258609	          515.418632	           56.558113	           -0.292151	            0.005468	           -0.708600	            0.012966	           -2.958796	           -0.324676
            0.013500	           -1.767485	          392.675010	          -53.569771	           -0.298739	            0.006088	           -0.376681	           -0.013462	            2.990766	           -0.408008	           -1.881980	          514.868841	           56.180557	           -0.292110	            0.005468	           -0.708543	            0.010793	           -2.952617	           -0.322178
            0.014000	           -1.858455	          392.493517	          -53.295181	           -0.298622	            0.006089	           -0.376804	           -0.013773	            2.908671	           -0.394957	           -2.071936	          515.604013	           56.417906	           -0.292086	            0.005468	           -0.708574	            0.012050	           -2.998629	           -0.328113
            0.014500	           -1.858698	          391.953340	          -53.435064	           -0.298678	            0.006090	           -0.376988	           -0.014200	            2.994400	           -0.408227	           -2.022406	          514.867330	           56.462186	           -0.292196	            0.005467	           -0.708505	            0.011985	           -3.051079	           -0.334592
            0.015000	           -1.720241	          391.230928	          -53.117509	           -0.298885	            0.006090	           -0.377079	           -0.013157	            2.992161	           -0.406246	           -2.164991	          515.419640	           56.370361	           -0.292114	            0.005469	           -0.708747	            0.012462	           -2.966803	           -0.324473
            0.015500	           -1.812774	          392.133388	          -53.388552	           -0.298461	            0.006088	           -0.376687	           -0.013716	            2.967100	           -0.403968	           -2.070709	          515.236446	           56.181951	           -0.292204	            0.005467	           -0.708485	            0.012059	           -3.000425	           -0.327170
            0.016000	           -1.720828	          391.952777	          -53.297841	           -0.298851	            0.006089	           -0.376970	           -0.013223	            3.011774	           -0.409542	           -2.117559	          515.236277	           56.181971	           -0.292159	            0.005468	           -0.708594	            0.012492	           -3.039419	           -0.331422
            0.016500	           -1.721169	          391.953367	          -53.435405	           -0.298576	            0.006089	           -0.376890	           -0.013037	            2.968745	           -0.404732	           -2.258814	          515.420306	           56.088832	           -0.292047	            0.005468	           -0.708527	            0.012943	           -2.953420	           -0.321396
            0.017000	           -1.537213	          392.492989	          -53.158406	           -0.298629	            0.006088	           -0.376592	           -0.011477	            2.930297	           -0.396873	           -2.070688	          515.236279	           56.228879	           -0.292130	            0.005468	           -0.708521	            0.012054	           -2.999252	           -0.327315
